<svg width="1024" height="1024" viewBox="0 0 1024 1024" xmlns="http://www.w3.org/2000/svg">
  <defs>
    <linearGradient id="bg" x1="0" y1="0" x2="1" y2="1">
      <stop offset="0%" stop-color="#0b1020"/>
      <stop offset="60%" stop-color="#121a2e"/>
      <stop offset="100%" stop-color="#0b0f1a"/>
    </linearGradient>
    <radialGradient id="glow" cx="0.28" cy="0.2" r="0.9">
      <stop offset="0%" stop-color="#233557" stop-opacity="0.7"/>
      <stop offset="100%" stop-color="#0b1020" stop-opacity="0"/>
    </radialGradient>
    <linearGradient id="paper" x1="0" y1="0" x2="0" y2="1">
      <stop offset="0%" stop-color="#f8fafc"/>
      <stop offset="100%" stop-color="#e2e8f0"/>
    </linearGradient>
    <linearGradient id="fold" x1="0" y1="0" x2="1" y2="1">
      <stop offset="0%" stop-color="#ffffff"/>
      <stop offset="100%" stop-color="#c7d2fe"/>
    </linearGradient>
    <filter id="shadow" x="-20%" y="-20%" width="140%" height="140%">
      <feDropShadow dx="0" dy="20" stdDeviation="24" flood-color="#05070d" flood-opacity="0.6"/>
    </filter>
  </defs>
  <rect width="1024" height="1024" fill="url(#bg)"/>
  <rect width="1024" height="1024" fill="url(#glow)"/>

  <g filter="url(#shadow)">
    <rect x="222" y="180" width="580" height="664" rx="60" fill="url(#paper)"/>
    <path d="M702 180 L802 280 L702 280 Z" fill="url(#fold)"/>
    <path d="M702 180 L802 280 L802 180 Z" fill="#e2e8f0"/>
  </g>

  <mask id="moon-cut">
    <rect width="1024" height="1024" fill="white"/>
    <circle cx="694" cy="330" r="90" fill="black"/>
  </mask>
  <circle cx="650" cy="330" r="92" fill="#fef3c7" mask="url(#moon-cut)"/>
  <circle cx="650" cy="330" r="92" fill="none" stroke="#fde68a" stroke-width="10" opacity="0.6"/>

  <rect x="264" y="300" width="340" height="18" rx="9" fill="#94a3b8"/>
  <rect x="264" y="352" width="260" height="14" rx="7" fill="#cbd5e1"/>
  <rect x="264" y="402" width="300" height="14" rx="7" fill="#cbd5e1"/>
</svg>
